:SAMPLES-PER-SECOND 30
:FULLY-SPECIFIED
:DEGREES
112
root  14.3581 40.0232 0.807223 -95.325 -88.8074 91.3453
RightUpLeg  3.16081 -8.25699 -4.46323
RightLeg  4.36125 3.34054 -0.0587395
RightFoot  -3.8911 -0.0913924 0.974407
RightToes  4.6566e-010 0 -3.6325e-017
Spine  3.46693 0.0865527 1.15887
Spine1  2.24333 0.46462 -1.30876
HEad  -2.42791 -2.3288 -2.05195
LeftShoulder1  0.193491 1.70362 -2.15962
LeftArm  -21.6784 2.6219 -15.4733
LeftForeArm  -1.22659 1.55921 2.73909
LeftHand  -0.0896544 2.64846 3.27939
RightShoulder  0.113025 -2.26328 0.944167
RightArm  -11.075 1.279 9.86683
RightForeArm  -3.8547 -1.73389 -3.30763
RightHand  -0.19252 6.2767 -2.25087
LeftUpLeg  2.95155 6.97284 4.01025
LeftLeg  2.43494 -3.28108 0.479014
LeftFoot  -1.35446 0.0455044 -0.382322
LeftToes  -4.59298e-010 2.08438e-011 -1.27151e-011
113
root  14.3577 40.02 0.810753 -93.9743 -88.8017 90.0156
RightUpLeg  3.13412 -8.24 -4.46085
RightLeg  4.36993 3.30272 -0.0822966
RightFoot  -3.91739 -0.09114 0.97049
RightToes  4.6566e-010 0 -3.6325e-017
Spine  3.41605 0.112737 1.06888
Spine1  2.29208 0.465954 -1.18716
HEad  -2.52466 -2.14196 -2.1642
LeftShoulder1  0.193603 1.63068 -2.16537
LeftArm  -21.7752 2.49945 -15.5437
LeftForeArm  -1.27323 1.74943 2.82229
LeftHand  -0.089499 2.47488 3.16187
RightShoulder  0.112554 -2.28961 0.885873
RightArm  -11.2054 1.30244 9.93437
RightForeArm  -3.91279 -1.77028 -3.35543
RightHand  -0.200568 6.17576 -2.34581
LeftUpLeg  2.91783 6.97153 4.00274
LeftLeg  2.44111 -3.29985 0.466875
LeftFoot  -1.3695 0.0483619 -0.42673
LeftToes  -4.59298e-010 2.08438e-011 -1.27151e-011
114
root  14.3561 40.022 0.812561 -94.0328 -88.8348 90.0617
RightUpLeg  3.19109 -8.19726 -4.415
RightLeg  4.28057 3.25383 -0.107063
RightFoot  -3.87337 -0.0958401 1.04343
RightToes  4.6566e-010 0 -3.6325e-017
Spine  3.39589 0.123364 1.01148
Spine1  2.31513 0.449238 -1.06764
HEad  -2.80564 -2.03455 -2.34196
LeftShoulder1  0.191247 1.65903 -2.16969
LeftArm  -21.7673 2.45716 -15.6112
LeftForeArm  -1.29992 1.7494 2.81119
LeftHand  -0.086068 2.398 3.15213
RightShoulder  0.112349 -2.30592 0.887354
RightArm  -11.1103 1.45763 9.90271
RightForeArm  -4.04285 -1.87001 -3.30666
RightHand  -0.21338 6.15554 -2.47737
LeftUpLeg  2.90432 6.98638 4.03497
LeftLeg  2.49478 -3.31114 0.479325
LeftFoot  -1.39831 0.0497555 -0.448388
LeftToes  -4.59298e-010 2.08438e-011 -1.27151e-011
115
root  14.3467 40.0257 0.81909 -96.6023 -88.8121 92.691
RightUpLeg  3.10334 -8.19977 -4.4271
RightLeg  4.32666 3.2991 -0.121756
RightFoot  -3.85775 -0.099227 1.09599
RightToes  4.6566e-010 0 -3.6325e-017
Spine  3.21434 0.163251 0.983298
Spine1  2.43072 0.4843 -1.02285
HEad  -3.22252 -1.99281 -2.3908
LeftShoulder1  0.183324 1.74077 -2.20403
LeftArm  -21.8521 2.33118 -15.6603
LeftForeArm  -1.35842 1.69672 2.82966
LeftHand  -0.0830174 2.64544 3.20124
RightShoulder  0.111235 -2.29468 0.854222
RightArm  -11.21 1.49464 9.92664
RightForeArm  -4.12836 -1.96194 -3.34712
RightHand  -0.206271 6.33483 -2.37905
LeftUpLeg  2.93396 6.97889 4.00393
LeftLeg  2.36416 -3.25173 0.465025
LeftFoot  -1.34503 0.0454891 -0.382085
LeftToes  -4.59298e-010 2.08438e-011 -1.27151e-011
116
root  14.341 40.0276 0.824166 -96.55 -88.79 92.7193
RightUpLeg  3.01653 -8.22217 -4.45536
RightLeg  4.33843 3.32518 -0.109969
RightFoot  -3.84708 -0.0954892 1.03798
RightToes  4.6566e-010 0 -3.6325e-017
Spine  3.09921 0.182604 0.980493
Spine1  2.50379 0.511278 -1.05348
HEad  -3.88427 -1.81687 -2.36175
LeftShoulder1  0.182781 1.72591 -2.07072
LeftArm  -21.855 2.41491 -15.7724
LeftForeArm  -1.65245 1.51615 2.79543
LeftHand  -0.0782063 3.11124 3.61222
RightShoulder  0.108719 -2.34287 0.826742
RightArm  -11.2659 1.45057 9.94855
RightForeArm  -4.09086 -1.91474 -3.36992
RightHand  -0.192916 6.40123 -2.23782
LeftUpLeg  2.87592 6.96096 3.96501
LeftLeg  2.32517 -3.18261 0.459127
LeftFoot  -1.33702 0.0536721 -0.509255
LeftToes  -4.59298e-010 2.08438e-011 -1.27151e-011
117
root  14.336 40.0289 0.830556 -94.746 -88.7797 90.9736
RightUpLeg  2.98315 -8.255 -4.48781
RightLeg  4.32475 3.31674 -0.0853951
RightFoot  -3.83921 -0.0925811 0.992854
RightToes  4.6566e-010 0 -3.6325e-017
Spine  3.1353 0.164393 0.933019
Spine1  2.42866 0.480682 -0.998084
HEad  -4.2562 -1.82019 -2.36181
LeftShoulder1  0.177795 1.75815 -1.96808
LeftArm  -22.0107 2.4794 -15.8492
LeftForeArm  -1.32951 1.53714 2.91264
LeftHand  -0.0783542 2.84265 3.37473
RightShoulder  0.105767 -2.38256 0.82833
RightArm  -11.272 1.48086 9.85301
RightForeArm  -3.83089 -1.86081 -3.37241
RightHand  -0.182892 6.10614 -2.17873
LeftUpLeg  2.82966 6.96354 3.95152
LeftLeg  2.28274 -3.26753 0.424276
LeftFoot  -1.28351 0.0417381 -0.323791
LeftToes  -4.59298e-010 2.08438e-011 -1.27151e-011
